HIERARCHY
ROOT Hips
{
	OFFSET 0.000000 0.000000 0.000000
	CHANNELS 6 Xposition Yposition Zposition Zrotation Yrotation Xrotation
	JOINT LHipJoint
	{
		OFFSET 0.000000 0.000000 0.000000
		CHANNELS 3 Zrotation Yrotation Xrotation
		JOINT LeftUpLeg
		{
			OFFSET 1.363060 -1.794630 0.839290
			CHANNELS 3 Zrotation Yrotation Xrotation
			JOINT LeftLeg
			{
				OFFSET 2.448110 -6.726130 0.000000
				CHANNELS 3 Zrotation Yrotation Xrotation
				JOINT LeftFoot
				{
					OFFSET 2.562200 -7.039590 0.000000
					CHANNELS 3 Zrotation Yrotation Xrotation
					JOINT LeftToeBase
					{
						OFFSET 0.157640 -0.433110 2.322550
						CHANNELS 3 Zrotation Yrotation Xrotation
						End Site
						{
							OFFSET 0.000000 0.000000 0.000000
						}
					}
				}
			}
		}
	}
	JOINT RHipJoint
	{
		OFFSET 0.000000 0.000000 0.000000
		CHANNELS 3 Zrotation Yrotation Xrotation
		JOINT RightUpLeg
		{
			OFFSET -1.305520 -1.794630 0.839290
			CHANNELS 3 Zrotation Yrotation Xrotation
			JOINT RightLeg
			{
				OFFSET -2.542530 -6.985550 0.000000
				CHANNELS 3 Zrotation Yrotation Xrotation
				JOINT RightFoot
				{
					OFFSET -2.568260 -7.056230 0.000000
					CHANNELS 3 Zrotation Yrotation Xrotation
					JOINT RightToeBase
					{
						OFFSET -0.164730 -0.452590 2.363150
						CHANNELS 3 Zrotation Yrotation Xrotation
						End Site
						{
							OFFSET 0.000000 0.000000 0.000000
						}
					}
				}
			}
		}
	}
	JOINT LowerBack
	{
		OFFSET 0.000000 0.000000 0.000000
		CHANNELS 3 Zrotation Yrotation Xrotation
		JOINT Spine
		{
			OFFSET 0.028270 2.035590 -0.193380
			CHANNELS 3 Zrotation Yrotation Xrotation
			JOINT Spine1
			{
				OFFSET 0.056720 2.048850 -0.042750
				CHANNELS 3 Zrotation Yrotation Xrotation
				JOINT Neck
				{
					OFFSET 0.000000 0.000000 0.000000
					CHANNELS 3 Zrotation Yrotation Xrotation
					JOINT Neck1
					{
						OFFSET -0.054170 1.746240 0.172020
						CHANNELS 3 Zrotation Yrotation Xrotation
						JOINT Head
						{
							OFFSET 0.104070 1.761360 -0.123970
							CHANNELS 3 Zrotation Yrotation Xrotation
							End Site
							{
								OFFSET 0.000000 0.000000 0.000000
							}
						}
					}
				}
				JOINT LeftShoulder
				{
					OFFSET 0.000000 0.000000 0.000000
					CHANNELS 3 Zrotation Yrotation Xrotation
					JOINT LeftArm
					{
						OFFSET 3.362410 1.200890 -0.311210
						CHANNELS 3 Zrotation Yrotation Xrotation
						JOINT LeftForeArm
						{
							OFFSET 4.983000 -0.000000 -0.000000
							CHANNELS 3 Zrotation Yrotation Xrotation
							JOINT LeftHand
							{
								OFFSET 3.483560 -0.000000 -0.000000
								CHANNELS 3 Zrotation Yrotation Xrotation
								JOINT LeftFingerBase
								{
									OFFSET 0.000000 0.000000 0.000000
									CHANNELS 3 Zrotation Yrotation Xrotation
									JOINT LeftHandIndex1
									{
										OFFSET 0.715260 -0.000000 -0.000000
										CHANNELS 3 Zrotation Yrotation Xrotation
										End Site
										{
											OFFSET 0.000000 0.000000 0.000000
										}
									}
								}
								JOINT LThumb
								{
									OFFSET 0.000000 0.000000 0.000000
									CHANNELS 3 Zrotation Yrotation Xrotation
									End Site
									{
										OFFSET 0.000000 0.000000 0.000000
									}
								}
							}
						}
					}
				}
				JOINT RightShoulder
				{
					OFFSET 0.000000 0.000000 0.000000
					CHANNELS 3 Zrotation Yrotation Xrotation
					JOINT RightArm
					{
						OFFSET -3.136600 1.374050 -0.404650
						CHANNELS 3 Zrotation Yrotation Xrotation
						JOINT RightForeArm
						{
							OFFSET -5.241900 -0.000000 -0.000000
							CHANNELS 3 Zrotation Yrotation Xrotation
							JOINT RightHand
							{
								OFFSET -3.444170 -0.000000 -0.000000
								CHANNELS 3 Zrotation Yrotation Xrotation
								JOINT RightFingerBase
								{
									OFFSET 0.000000 0.000000 0.000000
									CHANNELS 3 Zrotation Yrotation Xrotation
									JOINT RightHandIndex1
									{
										OFFSET -0.622530 -0.000000 -0.000000
										CHANNELS 3 Zrotation Yrotation Xrotation
										End Site
										{
											OFFSET 0.000000 0.000000 0.000000
										}
									}
								}
								JOINT RThumb
								{
									OFFSET 0.000000 0.000000 0.000000
									CHANNELS 3 Zrotation Yrotation Xrotation
									End Site
									{
										OFFSET 0.000000 0.000000 0.000000
									}
								}
							}
						}
					}
				}
			}
		}
	}
}
MOTION
Frames: 5
Frame Time: 0.008333
3.821420 -2.214040 -6.448339 5.349577 13.383920 -7.547207 -5.743418 3.079675 1.350766 -2.662695 7.138643 11.166409 -1.904587 -6.871040 5.387520 1.670215 -11.092756 5.185497 -1.510080 -2.527625 -5.023767 5.394807 0.725986 -1.300717 2.702138 3.533095 -5.370225 2.599951 0.867442 -0.132626 1.492028 -2.913131 20.603376 -0.226672 2.077003 8.634059 -3.419285 0.536194 -1.572639 1.212931 -0.609706 1.921734 0.883756 -1.777742 -2.349010 3.354675 -0.834233 3.235009 0.975155 3.983057 14.546387 1.277849 0.865405 -0.484820 1.042924 1.340628 0.575399 -13.975147 12.575933 46.966507 -0.806191 -12.220294 1.811695 1.065037 -0.353954 -7.834188 17.945742 -3.709588 4.235070 0.694343 0.000000 0.000000 21.490625 21.598120 42.512974 1.357443 1.934015 -0.233063 -1.872949 -19.556385 -9.424456 4.086688 -23.702356 7.088174 0.459398 1.089561 23.158583 5.345746 -7.348323 -26.155979 1.956634 0.000000 0.000000 41.064625 21.066557 38.845665
3.863816 -2.184809 -6.354792 5.334897 13.479924 -7.510303 -5.771196 3.117587 1.385122 -2.770286 7.191890 11.616310 -1.900251 -7.040842 5.163882 1.687193 -11.100554 5.334171 -1.514240 -2.584640 -5.078454 5.473967 0.726801 -1.305674 2.765505 3.589753 -5.317842 2.604221 0.836626 0.078139 1.512421 -2.932661 20.625767 -0.231413 2.086684 8.721139 -3.416739 0.540615 -1.613982 1.215160 -0.612989 1.917258 0.871660 -1.797117 -2.371991 3.379024 -0.818964 3.238683 0.984684 3.973536 14.603150 1.251227 0.868411 -0.473054 1.035748 1.362668 0.581180 -14.302734 12.809107 47.709248 -0.763219 -12.629751 1.775811 1.078929 -0.365325 -8.018977 18.081203 -3.839963 4.228047 0.718898 0.000000 0.000000 21.395266 21.892639 42.845192 1.354034 1.958119 -0.236389 -1.863174 -19.823820 -9.567167 4.162074 -24.061647 7.162966 0.462321 1.099741 23.365572 5.038484 -7.436088 -26.843952 1.958562 0.000000 0.000000 41.369804 21.080252 39.235065
3.910125 -2.154500 -6.248785 5.322116 13.574358 -7.469598 -5.798588 3.156234 1.419179 -2.873588 7.249705 12.075780 -1.892725 -7.203583 4.961154 1.705789 -11.104477 5.496059 -1.517231 -2.640529 -5.136027 5.552820 0.727154 -1.308979 2.830116 3.646431 -5.268324 2.606081 0.802613 0.290162 1.531427 -2.969337 20.642046 -0.236579 2.093149 8.801321 -3.411221 0.547396 -1.648328 1.219016 -0.612618 1.914667 0.861921 -1.813095 -2.383448 3.409272 -0.797616 3.255078 1.001198 3.975321 14.674146 1.234749 0.875090 -0.454272 1.037190 1.389689 0.588785 -14.571351 13.060813 48.484131 -0.710406 -13.023003 1.743747 1.094154 -0.374992 -8.178156 18.231150 -3.956703 4.227570 0.744373 0.000000 0.000000 21.312645 22.197002 43.187325 1.351529 1.983931 -0.239088 -1.839374 -20.089300 -9.707808 4.237452 -24.417509 7.240247 0.465387 1.109745 23.572260 4.740801 -7.514025 -27.507002 1.961089 0.000000 0.000000 41.703606 21.103600 39.616936
3.957721 -2.123047 -6.132463 5.311028 13.669988 -7.425234 -5.824105 3.196596 1.454459 -2.973288 7.310579 12.538192 -1.885203 -7.366350 4.760409 1.723865 -11.110201 5.659397 -1.520320 -2.696155 -5.191989 5.632703 0.727563 -1.311952 2.896520 3.702511 -5.219968 2.607738 0.768245 0.502126 1.549513 -3.008425 20.658083 -0.242038 2.096478 8.873932 -3.405720 0.553524 -1.684045 1.221808 -0.613569 1.909062 0.850668 -1.829913 -2.397989 3.435888 -0.778643 3.267703 1.016560 3.974790 14.740636 1.216277 0.880569 -0.438119 1.036334 1.414875 0.595849 -14.844868 13.308749 49.253307 -0.657749 -13.417170 1.711608 1.109207 -0.385248 -8.337679 18.382837 -4.070886 4.227038 0.769652 0.000000 0.000000 21.225609 22.497747 43.527473 1.349117 2.010096 -0.241728 -1.811514 -20.353861 -9.848489 4.312111 -24.771273 7.317943 0.468398 1.119788 23.779608 4.449182 -7.586887 -28.163893 1.963683 0.000000 0.000000 42.041218 21.127987 40.004070
4.002138 -2.095932 -6.026110 5.294740 13.758748 -7.385121 -5.855793 3.237349 1.487903 -3.074518 7.371408 12.983422 -1.879823 -7.527177 4.569177 1.736874 -11.130349 5.821852 -1.524774 -2.761778 -5.287930 5.696672 0.722449 -1.321879 2.938223 3.743481 -5.192494 2.605688 0.730838 0.707524 1.565630 -3.046085 20.694672 -0.249866 2.090305 8.930144 -3.400060 0.559150 -1.722356 1.222937 -0.614408 1.900373 0.838487 -1.846160 -2.405977 3.463698 -0.757954 3.282881 1.034672 3.977834 14.809784 1.201681 0.886264 -0.420868 1.037831 1.438593 0.602906 -15.106001 13.553479 49.988125 -0.615437 -13.822939 1.676698 1.123055 -0.399266 -8.521255 18.523186 -4.219259 4.206629 0.791087 0.000000 0.000000 21.076637 22.709497 43.783913 1.335373 2.028855 -0.247678 -1.827336 -20.626944 -10.012211 4.368948 -25.136377 7.390250 0.471019 1.129443 23.984402 4.131646 -7.665689 -28.824411 1.966276 0.000000 0.000000 42.405251 21.160437 40.386784
